<svg width="105" height="35" viewBox="0 0 105 35" fill="none" xmlns="http://www.w3.org/2000/svg">
<path d="M96.3676 0.00011375H8.34282C8.02196 0.00011375 7.70495 0.00011375 7.38493 0.00186374C7.11705 0.00361374 6.85131 0.00869747 6.58085 0.0129762C5.99331 0.0198903 5.40714 0.0715802 4.82745 0.167597C4.24857 0.265704 3.68783 0.450664 3.16418 0.71622C2.64118 0.984023 2.1633 1.33201 1.74787 1.74754C1.33026 2.16191 0.982152 2.64087 0.716929 3.16599C0.450974 3.69007 0.26656 4.25167 0.170056 4.83139C0.0726343 5.41038 0.020211 5.99605 0.0132562 6.58314C0.00513623 6.85141 0.00427874 7.12058 0 7.38889V27.6138C0.00427874 27.8855 0.00513623 28.1487 0.0132562 28.4205C0.0202132 29.0075 0.0726365 29.5932 0.170056 30.1721C0.266293 30.7522 0.450718 31.3141 0.716929 31.8384C0.982032 32.3618 1.33019 32.8388 1.74787 33.2509C2.16172 33.6683 2.63991 34.0165 3.16418 34.2822C3.68782 34.5485 4.24851 34.7346 4.82745 34.8342C5.40724 34.9294 5.99334 34.9811 6.58085 34.9889C6.85131 34.9948 7.11705 34.9982 7.38493 34.9982C7.70494 35 8.02197 35 8.34282 35H96.3676C96.6821 35 97.0016 35 97.3161 34.9982C97.5827 34.9982 97.8562 34.9948 98.1228 34.9889C98.7092 34.9816 99.2942 34.9298 99.8728 34.8342C100.454 34.7339 101.016 34.5479 101.542 34.2822C102.066 34.0163 102.544 33.6681 102.957 33.2509C103.374 32.8372 103.723 32.3605 103.991 31.8384C104.256 31.3137 104.438 30.7518 104.533 30.1721C104.631 29.5931 104.685 29.0076 104.695 28.4205C104.699 28.1487 104.699 27.8855 104.699 27.6138C104.706 27.2959 104.706 26.9798 104.706 26.6567V8.3442C104.706 8.02377 104.706 7.7059 104.699 7.38889C104.699 7.12058 104.699 6.85141 104.695 6.5831C104.685 5.99596 104.631 5.41043 104.533 4.83136C104.438 4.25197 104.255 3.69042 103.991 3.16596C103.451 2.1134 102.595 1.25663 101.542 0.716141C101.016 0.451234 100.454 0.266323 99.8728 0.167518C99.2943 0.0710785 98.7092 0.0193705 98.1228 0.0128537C97.8562 0.00858372 97.5827 0.00345624 97.3161 0.00174999C97.0016 0 96.6821 0 96.3676 0V0.00011375Z" fill="#A6A6A6"/>
<path d="M7.38918 34.2343C7.12258 34.2343 6.86243 34.2309 6.59792 34.2249C6.04999 34.2178 5.50333 34.1701 4.96243 34.0822C4.45808 33.9953 3.96949 33.8337 3.51279 33.6028C3.06028 33.3737 2.64755 33.0734 2.29042 32.7133C1.92812 32.3574 1.62649 31.9446 1.39748 31.4913C1.16594 31.0351 1.00571 30.5461 0.922352 30.0413C0.832336 29.4989 0.783634 28.9504 0.776665 28.4007C0.771117 28.2161 0.763855 27.6017 0.763855 27.6017V7.38878C0.763855 7.38878 0.77159 6.78379 0.776709 6.60606C0.783381 6.05715 0.8318 5.50956 0.921547 4.968C1.00506 4.46183 1.16541 3.97139 1.39707 3.51367C1.62524 3.06069 1.9252 2.64762 2.28532 2.29047C2.64503 1.92991 3.05908 1.62803 3.51236 1.39581C3.96801 1.16558 4.45567 1.00514 4.95901 0.919861C5.50168 0.831106 6.05024 0.783122 6.60008 0.776309L7.3896 0.765625H97.3118L98.1107 0.776737C98.6556 0.783212 99.1992 0.830769 99.7368 0.919003C100.245 1.00535 100.738 1.16691 101.199 1.39837C102.107 1.86636 102.846 2.60676 103.312 3.5158C103.54 3.97037 103.698 4.45681 103.78 4.9586C103.871 5.5046 103.922 6.0565 103.932 6.60991C103.935 6.85771 103.935 7.12388 103.935 7.38878C103.942 7.7169 103.942 8.02921 103.942 8.34409V26.6566C103.942 26.9745 103.942 27.2847 103.935 27.5974C103.935 27.882 103.935 28.1426 103.931 28.4109C103.921 28.9544 103.871 29.4965 103.782 30.0327C103.7 30.5411 103.541 31.034 103.309 31.4939C103.079 31.9423 102.779 32.3515 102.421 32.7064C102.063 33.0685 101.65 33.3706 101.196 33.6011C100.737 33.8339 100.245 33.996 99.7368 34.0822C99.196 34.1705 98.6493 34.2182 98.1013 34.2249C97.845 34.2309 97.5767 34.2343 97.3161 34.2343L96.3676 34.236L7.38918 34.2343Z" fill="black"/>
<path d="M21.6726 17.7642C21.6821 17.0339 21.876 16.3178 22.2366 15.6826C22.5971 15.0474 23.1124 14.5137 23.7346 14.1312C23.3394 13.5667 22.8179 13.1021 22.2117 12.7744C21.6055 12.4466 20.9312 12.2648 20.2424 12.2432C18.773 12.089 17.3486 13.1225 16.5998 13.1225C15.8366 13.1225 14.6838 12.2585 13.4424 12.2841C12.6395 12.31 11.8569 12.5435 11.171 12.9618C10.4851 13.3801 9.91928 13.969 9.52863 14.671C7.83638 17.6008 9.09864 21.9067 10.7197 24.275C11.5307 25.4347 12.4786 26.7301 13.7188 26.6841C14.9325 26.6338 15.3858 25.9102 16.8508 25.9102C18.3022 25.9102 18.7275 26.6841 19.9929 26.6549C21.2952 26.6338 22.1158 25.4901 22.8984 24.3194C23.4811 23.4931 23.9295 22.5799 24.227 21.6135C23.4704 21.2935 22.8247 20.7578 22.3704 20.0733C21.9162 19.3888 21.6735 18.5857 21.6726 17.7642Z" fill="white"/>
<path d="M19.2826 10.6861C19.9926 9.83369 20.3425 8.73804 20.2578 7.63184C19.1729 7.74578 18.1708 8.26427 17.4511 9.08399C17.0993 9.48445 16.8298 9.95033 16.6581 10.455C16.4863 10.9597 16.4158 11.4932 16.4504 12.0252C16.993 12.0308 17.5298 11.9132 18.0204 11.6812C18.511 11.4493 18.9425 11.109 19.2826 10.6861Z" fill="white"/>
<path d="M37.0143 23.7491H32.8726L31.878 26.686H30.1237L34.0467 15.8203H35.8693L39.7923 26.686H38.0081L37.0143 23.7491ZM33.3016 22.3939H36.5845L34.9661 17.6276H34.9209L33.3016 22.3939Z" fill="white"/>
<path d="M48.2645 22.7245C48.2645 25.1863 46.9469 26.7679 44.9585 26.7679C44.4548 26.7943 43.9539 26.6782 43.5131 26.4331C43.0722 26.188 42.7094 25.8237 42.466 25.3819H42.4283V29.3057H40.8022V18.7631H42.3762V20.0807H42.4061C42.6607 19.641 43.0297 19.2786 43.4739 19.032C43.9181 18.7854 44.4208 18.6638 44.9286 18.6802C46.9392 18.6802 48.2645 20.2695 48.2645 22.7245ZM46.5931 22.7245C46.5931 21.1206 45.7643 20.0662 44.4996 20.0662C43.2572 20.0662 42.4215 21.1428 42.4215 22.7245C42.4215 24.3207 43.2572 25.3896 44.4996 25.3896C45.7643 25.3896 46.5931 24.3429 46.5931 22.7245Z" fill="white"/>
<path d="M56.9837 22.7245C56.9837 25.1863 55.6661 26.7679 53.6777 26.7679C53.174 26.7943 52.6731 26.6782 52.2322 26.4331C51.7914 26.188 51.4285 25.8237 51.1851 25.3819H51.1475V29.3057H49.5214V18.7631H51.0954V20.0807H51.1253C51.3799 19.641 51.7489 19.2786 52.1931 19.032C52.6372 18.7854 53.14 18.6638 53.6478 18.6802C55.6584 18.6802 56.9837 20.2695 56.9837 22.7245ZM55.3123 22.7245C55.3123 21.1206 54.4835 20.0662 53.2188 20.0662C51.9764 20.0662 51.1407 21.1428 51.1407 22.7245C51.1407 24.3207 51.9764 25.3896 53.2188 25.3896C54.4835 25.3896 55.3123 24.3429 55.3123 22.7245H55.3123Z" fill="white"/>
<path d="M62.7464 23.6581C62.8669 24.7356 63.9136 25.4431 65.344 25.4431C66.7146 25.4431 67.7007 24.7356 67.7007 23.764C67.7007 22.9206 67.106 22.4156 65.6978 22.0696L64.2896 21.7303C62.2944 21.2484 61.3681 20.3153 61.3681 18.8011C61.3681 16.9264 63.0019 15.6387 65.3218 15.6387C67.6178 15.6387 69.1918 16.9264 69.2448 18.8011H67.6033C67.505 17.7168 66.6087 17.0623 65.2987 17.0623C63.9888 17.0623 63.0924 17.7245 63.0924 18.6884C63.0924 19.4565 63.665 19.9086 65.0655 20.2546L66.2626 20.5485C68.4919 21.0758 69.4182 21.9713 69.4182 23.5606C69.4182 25.5934 67.799 26.8666 65.2235 26.8666C62.8139 26.8666 61.1869 25.6234 61.0818 23.658L62.7464 23.6581Z" fill="white"/>
<path d="M72.9276 16.8887V18.7634H74.4341V20.0511H72.9276V24.4184C72.9276 25.0969 73.2292 25.4131 73.8915 25.4131C74.0703 25.4099 74.2489 25.3974 74.4264 25.3754V26.6555C74.1286 26.7111 73.826 26.7363 73.5232 26.7307C71.9193 26.7307 71.2938 26.1282 71.2938 24.5919V20.0511H70.142V18.7634H71.2938V16.8887H72.9276Z" fill="white"/>
<path d="M75.3065 22.7248C75.3065 20.2323 76.7746 18.666 79.0637 18.666C81.3606 18.666 82.8218 20.2323 82.8218 22.7248C82.8218 25.2242 81.3683 26.7837 79.0637 26.7837C76.76 26.7837 75.3065 25.2242 75.3065 22.7248ZM81.1649 22.7248C81.1649 21.015 80.3814 20.0059 79.0637 20.0059C77.7461 20.0059 76.9634 21.0227 76.9634 22.7248C76.9634 24.4415 77.7461 25.443 79.0637 25.443C80.3814 25.443 81.1649 24.4415 81.1649 22.7248H81.1649Z" fill="white"/>
<path d="M84.1625 18.763H85.7134V20.1114H85.751C85.8559 19.6902 86.1026 19.3181 86.4496 19.0574C86.7966 18.7968 87.2228 18.6635 87.6565 18.6801C87.8439 18.6794 88.0308 18.6998 88.2136 18.7408V20.2618C87.977 20.1895 87.7303 20.1563 87.483 20.1635C87.2468 20.1539 87.0113 20.1956 86.7926 20.2856C86.574 20.3756 86.3775 20.5119 86.2165 20.685C86.0555 20.8582 85.9339 21.0641 85.8601 21.2887C85.7862 21.5133 85.7618 21.7512 85.7885 21.9861V26.6849H84.1624L84.1625 18.763Z" fill="white"/>
<path d="M95.7109 24.3586C95.4921 25.7967 94.0916 26.7837 92.2998 26.7837C89.9952 26.7837 88.5648 25.2396 88.5648 22.7624C88.5648 20.2776 90.0029 18.666 92.2314 18.666C94.4232 18.666 95.8015 20.1716 95.8015 22.5736V23.1307H90.2063V23.229C90.1804 23.5205 90.2169 23.8142 90.3133 24.0906C90.4098 24.367 90.5639 24.6196 90.7654 24.8319C90.967 25.0441 91.2114 25.211 91.4824 25.3215C91.7534 25.4321 92.0449 25.4836 92.3374 25.4729C92.7216 25.5089 93.1073 25.4199 93.4369 25.2191C93.7665 25.0184 94.0225 24.7166 94.1668 24.3586L95.7109 24.3586ZM90.214 21.9943H94.1745C94.1891 21.7321 94.1494 21.4698 94.0578 21.2237C93.9662 20.9777 93.8247 20.7532 93.6423 20.5644C93.4598 20.3756 93.2403 20.2266 92.9975 20.1266C92.7547 20.0267 92.4939 19.978 92.2314 19.9836C91.9666 19.9821 91.7041 20.0329 91.4591 20.1333C91.214 20.2337 90.9913 20.3817 90.8037 20.5686C90.6162 20.7555 90.4675 20.9777 90.3663 21.2224C90.265 21.4671 90.2133 21.7295 90.214 21.9943V21.9943Z" fill="white"/>
<path d="M33.0978 7.63971C33.4387 7.61525 33.7808 7.66675 34.0994 7.79051C34.418 7.91426 34.7052 8.10718 34.9402 8.35535C35.1752 8.60352 35.3522 8.90076 35.4584 9.22562C35.5647 9.55048 35.5975 9.89487 35.5545 10.2339C35.5545 11.9019 34.653 12.8607 33.0978 12.8607H31.212V7.63971H33.0978ZM32.0229 12.1223H33.0073C33.2509 12.1369 33.4946 12.0969 33.7209 12.0054C33.9471 11.9139 34.15 11.773 34.315 11.5932C34.4799 11.4133 34.6027 11.1989 34.6743 10.9656C34.7459 10.7323 34.7646 10.486 34.729 10.2446C34.762 10.0041 34.7414 9.7593 34.6687 9.52772C34.596 9.29614 34.4729 9.08351 34.3084 8.90508C34.1438 8.72664 33.9418 8.58681 33.7169 8.4956C33.4919 8.40439 33.2496 8.36407 33.0073 8.37752H32.0229V12.1223Z" fill="white"/>
<path d="M36.4705 10.8891C36.4457 10.6301 36.4753 10.3689 36.5574 10.1221C36.6395 9.87526 36.7723 9.64833 36.9473 9.45585C37.1222 9.26337 37.3355 9.10957 37.5733 9.00433C37.8112 8.89909 38.0684 8.84473 38.3285 8.84473C38.5887 8.84473 38.8459 8.89909 39.0838 9.00433C39.3216 9.10957 39.5349 9.26337 39.7098 9.45585C39.8848 9.64833 40.0176 9.87526 40.0997 10.1221C40.1818 10.3689 40.2114 10.6301 40.1866 10.8891C40.2119 11.1482 40.1826 11.4099 40.1007 11.6571C40.0188 11.9043 39.8861 12.1316 39.7111 12.3245C39.5361 12.5173 39.3227 12.6714 39.0846 12.7769C38.8465 12.8824 38.589 12.9369 38.3285 12.9369C38.0681 12.9369 37.8106 12.8824 37.5725 12.7769C37.3344 12.6714 37.121 12.5173 36.946 12.3245C36.771 12.1316 36.6383 11.9043 36.5564 11.6571C36.4745 11.4099 36.4452 11.1482 36.4705 10.8891ZM39.3868 10.8891C39.3868 10.035 39.0032 9.53554 38.3298 9.53554C37.6539 9.53554 37.2737 10.035 37.2737 10.8891C37.2737 11.75 37.654 12.2456 38.3298 12.2456C39.0032 12.2456 39.3868 11.7465 39.3868 10.8891H39.3868Z" fill="white"/>
<path d="M45.1264 12.8609H44.3198L43.5055 9.9591H43.444L42.6331 12.8609H41.8341L40.748 8.9209H41.5367L42.2426 11.9274H42.3007L43.1107 8.9209H43.8567L44.6667 11.9274H44.7283L45.4306 8.9209H46.2082L45.1264 12.8609Z" fill="white"/>
<path d="M47.1217 8.91978H47.8702V9.54569H47.9283C48.0269 9.32088 48.1932 9.13243 48.4039 9.0066C48.6147 8.88077 48.8595 8.82383 49.1041 8.84372C49.2958 8.82931 49.4883 8.85821 49.6674 8.9283C49.8464 8.99838 50.0073 9.10785 50.1383 9.24859C50.2693 9.38932 50.3669 9.55773 50.424 9.74132C50.481 9.92491 50.496 10.119 50.4679 10.3092V12.8598H49.6903V10.5044C49.6903 9.87126 49.4152 9.55637 48.8401 9.55637C48.7099 9.55031 48.58 9.57246 48.4592 9.62132C48.3384 9.67017 48.2296 9.74456 48.1402 9.8394C48.0509 9.93423 47.9831 10.0473 47.9415 10.1708C47.8999 10.2942 47.8855 10.4253 47.8993 10.5548V12.8598H47.1217L47.1217 8.91978Z" fill="white"/>
<path d="M51.7069 7.38281H52.4845V12.8609H51.7069V7.38281Z" fill="white"/>
<path d="M53.5653 10.8891C53.5406 10.6302 53.5702 10.3689 53.6524 10.1221C53.7345 9.87528 53.8673 9.64835 54.0423 9.45586C54.2172 9.26337 54.4305 9.10958 54.6684 9.00433C54.9063 8.89909 55.1635 8.84473 55.4237 8.84473C55.6838 8.84473 55.941 8.89909 56.1789 9.00433C56.4168 9.10958 56.6301 9.26337 56.805 9.45586C56.98 9.64835 57.1128 9.87528 57.1949 10.1221C57.2771 10.3689 57.3067 10.6302 57.2819 10.8891C57.3072 11.1483 57.2779 11.4099 57.1959 11.6571C57.114 11.9044 56.9813 12.1317 56.8063 12.3245C56.6313 12.5174 56.4179 12.6715 56.1797 12.777C55.9416 12.8824 55.6841 12.9369 55.4237 12.9369C55.1632 12.9369 54.9057 12.8824 54.6676 12.777C54.4294 12.6715 54.216 12.5174 54.041 12.3245C53.866 12.1317 53.7333 11.9044 53.6514 11.6571C53.5694 11.4099 53.5401 11.1483 53.5653 10.8891ZM56.4817 10.8891C56.4817 10.0351 56.098 9.53562 55.4247 9.53562C54.7488 9.53562 54.3686 10.0351 54.3686 10.8891C54.3686 11.75 54.7488 12.2456 55.4247 12.2456C56.0981 12.2456 56.4817 11.7466 56.4817 10.8891H56.4817Z" fill="white"/>
<path d="M58.1006 11.7466C58.1006 11.0373 58.6287 10.6285 59.566 10.5704L60.6333 10.5088V10.1688C60.6333 9.75262 60.3581 9.51763 59.8267 9.51763C59.3926 9.51763 59.0918 9.677 59.0055 9.95556H58.2527C58.3322 9.2788 58.9688 8.84473 59.8625 8.84473C60.8503 8.84473 61.4075 9.33648 61.4075 10.1688V12.8608H60.6589V12.3071H60.5974C60.4725 12.5057 60.2972 12.6677 60.0893 12.7763C59.8813 12.885 59.6483 12.9366 59.4139 12.9257C59.2485 12.9429 59.0814 12.9253 58.9232 12.8739C58.765 12.8226 58.6194 12.7386 58.4956 12.6275C58.3719 12.5164 58.2728 12.3807 58.2048 12.2289C58.1367 12.0772 58.1012 11.9129 58.1006 11.7466ZM60.6333 11.4099V11.0805L59.6711 11.142C59.1285 11.1783 58.8824 11.3629 58.8824 11.7102C58.8824 12.0649 59.1901 12.2712 59.6131 12.2712C59.737 12.2838 59.8622 12.2712 59.9812 12.2344C60.1002 12.1976 60.2106 12.1372 60.3058 12.0568C60.401 11.9765 60.479 11.8778 60.5353 11.7666C60.5915 11.6555 60.6249 11.5342 60.6333 11.4099Z" fill="white"/>
<path d="M62.4294 10.8892C62.4294 9.64423 63.0694 8.85554 64.0649 8.85554C64.3111 8.84419 64.5555 8.90317 64.7695 9.02558C64.9834 9.14798 65.1581 9.32876 65.2732 9.54679H65.3313V7.38281H66.1088V12.8609H65.3637V12.2384H65.3022C65.1783 12.455 64.9975 12.6335 64.7794 12.7547C64.5613 12.8759 64.3142 12.9351 64.0649 12.9259C63.0626 12.9259 62.4294 12.1372 62.4294 10.8892ZM63.2327 10.8892C63.2327 11.7249 63.6266 12.2278 64.2854 12.2278C64.9408 12.2278 65.3458 11.7177 65.3458 10.8926C65.3458 10.0715 64.9365 9.55408 64.2854 9.55408C63.6308 9.55408 63.2326 10.0604 63.2326 10.8892H63.2327Z" fill="white"/>
<path d="M69.326 10.8891C69.3012 10.6301 69.3309 10.3689 69.413 10.1221C69.4951 9.87526 69.6279 9.64833 69.8028 9.45585C69.9778 9.26337 70.191 9.10957 70.4289 9.00433C70.6668 8.89909 70.924 8.84473 71.1841 8.84473C71.4442 8.84473 71.7015 8.89909 71.9393 9.00433C72.1772 9.10957 72.3904 9.26337 72.5654 9.45585C72.7403 9.64833 72.8731 9.87526 72.9552 10.1221C73.0373 10.3689 73.067 10.6301 73.0422 10.8891C73.0674 11.1482 73.0382 11.4099 72.9563 11.6571C72.8744 11.9043 72.7417 12.1316 72.5667 12.3245C72.3917 12.5173 72.1783 12.6714 71.9402 12.7769C71.7021 12.8824 71.4445 12.9369 71.1841 12.9369C70.9237 12.9369 70.6661 12.8824 70.428 12.7769C70.1899 12.6714 69.9765 12.5173 69.8015 12.3245C69.6265 12.1316 69.4938 11.9043 69.4119 11.6571C69.33 11.4099 69.3008 11.1482 69.326 10.8891ZM72.2424 10.8891C72.2424 10.035 71.8587 9.53554 71.1854 9.53554C70.5095 9.53554 70.1293 10.035 70.1293 10.8891C70.1293 11.75 70.5095 12.2456 71.1854 12.2456C71.8587 12.2456 72.2424 11.7465 72.2424 10.8891Z" fill="white"/>
<path d="M74.0855 8.91978H74.834V9.54569H74.8922C74.9907 9.32088 75.157 9.13243 75.3677 9.0066C75.5785 8.88077 75.8233 8.82383 76.0679 8.84372C76.2596 8.82931 76.4521 8.85821 76.6312 8.9283C76.8102 8.99838 76.9711 9.10785 77.1021 9.24859C77.2331 9.38932 77.3307 9.55773 77.3878 9.74132C77.4448 9.92491 77.4598 10.119 77.4317 10.3092V12.8598H76.6541V10.5044C76.6541 9.87126 76.379 9.55637 75.8039 9.55637C75.6737 9.55031 75.5438 9.57246 75.423 9.62132C75.3022 9.67017 75.1934 9.74456 75.104 9.8394C75.0147 9.93423 74.9469 10.0473 74.9053 10.1708C74.8637 10.2942 74.8493 10.4253 74.8631 10.5548V12.8598H74.0855V8.91978Z" fill="white"/>
<path d="M81.8255 7.93945V8.93835H82.6791V9.59332H81.8255V11.6193C81.8255 12.032 81.9955 12.2128 82.3826 12.2128C82.4817 12.2124 82.5807 12.2064 82.6791 12.1948V12.8425C82.5395 12.8675 82.398 12.8808 82.2562 12.8822C81.3914 12.8822 81.0471 12.578 81.0471 11.8184V9.59328H80.4216V8.93831H81.0471V7.93945H81.8255Z" fill="white"/>
<path d="M83.7412 7.38281H84.512V9.55407H84.5735C84.6769 9.32717 84.8477 9.13765 85.0627 9.01135C85.2777 8.88505 85.5264 8.8281 85.7749 8.84827C85.9656 8.83789 86.1562 8.86973 86.3332 8.94152C86.5102 9.0133 86.6692 9.12327 86.7988 9.26356C86.9284 9.40386 87.0255 9.57103 87.083 9.75314C87.1406 9.93526 87.1572 10.1278 87.1318 10.3171V12.861H86.3534V10.509C86.3534 9.87963 86.0603 9.5609 85.5109 9.5609C85.3773 9.54994 85.2428 9.56831 85.117 9.61473C84.9912 9.66115 84.8771 9.7345 84.7826 9.82965C84.6881 9.92479 84.6155 10.0394 84.57 10.1656C84.5244 10.2917 84.507 10.4262 84.5189 10.5598V12.8609H83.7413L83.7412 7.38281Z" fill="white"/>
<path d="M91.6658 11.7971C91.5601 12.1571 91.3312 12.4686 91.0191 12.677C90.707 12.8854 90.3316 12.9774 89.9585 12.9369C89.6989 12.9438 89.441 12.8941 89.2025 12.7912C88.9641 12.6884 88.7509 12.5349 88.5777 12.3414C88.4045 12.1479 88.2756 11.9191 88.1997 11.6707C88.1238 11.4224 88.1029 11.1605 88.1384 10.9033C88.1039 10.6452 88.1251 10.3828 88.2008 10.1337C88.2765 9.88462 88.4048 9.6547 88.5771 9.45951C88.7493 9.26432 88.9615 9.10842 89.1993 9.00237C89.437 8.89631 89.6948 8.84257 89.9551 8.84479C91.0514 8.84479 91.7128 9.59379 91.7128 10.831V11.1024H88.9306V11.1459C88.9184 11.2905 88.9366 11.4361 88.9839 11.5732C89.0313 11.7104 89.1068 11.8361 89.2056 11.9424C89.3044 12.0487 89.4243 12.1331 89.5576 12.1903C89.6909 12.2476 89.8348 12.2763 89.9799 12.2747C90.1659 12.297 90.3543 12.2635 90.5212 12.1785C90.6881 12.0934 90.826 11.9606 90.9172 11.797L91.6658 11.7971ZM88.9305 10.5273H90.9206C90.9304 10.395 90.9125 10.2622 90.8679 10.1373C90.8233 10.0125 90.7531 9.89829 90.6617 9.80217C90.5704 9.70604 90.46 9.63009 90.3375 9.57919C90.2151 9.52828 90.0834 9.50356 89.9508 9.5066C89.8163 9.50491 89.6828 9.53016 89.5583 9.58086C89.4337 9.63156 89.3205 9.70669 89.2255 9.80181C89.1304 9.89693 89.0553 10.0101 89.0046 10.1347C88.954 10.2593 88.9288 10.3928 88.9306 10.5273H88.9305Z" fill="white"/>
</svg>
